<svg width="207" height="78" viewBox="0 0 207 78" fill="none" xmlns="http://www.w3.org/2000/svg">
<path fill-rule="evenodd" clip-rule="evenodd" d="M59.3315 14.4792C63.3302 16.0399 67.9935 17.3536 72.1236 18.6319C75.296 19.6135 81.493 21.2484 84.0014 23.1955C86.4132 25.0673 87.1285 27.8998 86.4126 30.9344C85.7191 33.8787 84.0581 32.4724 82.0817 31.6863C78.7072 30.3446 74.8165 29.3043 71.3245 28.157C65.2927 26.1752 59.0209 24.2137 53.0675 22.0339C50.5658 21.1174 45.5412 19.5166 46.5249 15.6529C48.2366 10.2249 62.996 2.39987 68.0767 0.142876C70.0073 -0.714339 64.0907 2.56018 63.873 2.69358C60.6819 4.64729 51.0965 10.8889 58.5583 14.1508L58.9395 14.3177L59.3315 14.4792Z" fill="#0B8FC0"/>
<path fill-rule="evenodd" clip-rule="evenodd" d="M42.8949 19.5314C44.7079 22.5332 50.3072 23.9013 53.3843 24.9732C61.7043 27.9199 70.0399 30.8176 78.3497 33.7972C85.885 36.5674 88.1744 39.2719 87.499 47.9565C86.9803 54.1813 83.8477 51.4912 80.1023 50.1728C73.0266 47.6813 65.9122 45.3047 58.8244 42.8515L58.562 42.7606C51.9175 40.4593 45.27 38.2538 38.62 35.9884C34.5236 34.5934 26.6499 31.6204 27.7651 25.633C29.2747 18.3823 43.8454 10.7966 49.9091 7.47539C53.9416 5.27104 58.4487 2.7975 62.6234 0.97898C64.2108 0.286868 58.3371 3.45551 57.8697 3.72291C54.415 5.69935 40.0862 13.967 42.6916 19.1468L42.7893 19.3418L42.8949 19.5314Z" fill="url(#paint0_radial_154:2004)"/>
<path fill-rule="evenodd" clip-rule="evenodd" d="M23.8692 31.8375L24.008 32.0319C26.9059 35.9351 34.5456 37.8876 38.9912 39.3831C48.8793 42.7097 58.8023 45.9549 68.679 49.3018C77.5954 52.3107 86.8726 54.7765 88.1771 66.4192C88.4678 69.0177 88.2947 71.5732 87.9196 74.1496C87.0583 79.8887 84.7587 77.8848 80.7926 76.5137C76.1866 74.9219 71.3839 73.4916 66.7303 72.0003C50.7164 66.8672 34.6771 61.7999 18.6698 56.6512C9.29977 53.6375 -6.08813 47.9624 2.53462 34.7244C11.8582 20.7463 41.7776 7.22529 57.0201 0.980123C59.5406 -0.0523632 55.1613 2.05628 54.9502 2.16096C48.2213 5.48633 17.0402 21.497 23.6135 31.4504L23.8692 31.8375Z" fill="#46D722"/>
<path d="M96.9498 39.6172L100.267 47.3447L103.585 39.6172H108.26L102.504 51.4579V57.5655H98.0052V51.4579L92.275 39.6172H96.9498ZM110.564 48.5914C110.564 50.1533 110.958 51.4083 111.745 52.3558C112.599 53.4027 113.789 53.9261 115.314 53.9261C116.839 53.9261 118.037 53.4111 118.908 52.3804C119.712 51.3999 120.114 50.1371 120.114 48.5914C120.114 47.0295 119.712 45.7577 118.908 44.7773C118.037 43.7137 116.839 43.1819 115.314 43.1819C113.789 43.1819 112.599 43.7137 111.745 44.7773C110.958 45.7577 110.564 47.0295 110.564 48.5914ZM124.789 48.4915C124.789 51.367 123.867 53.6934 122.024 55.4718C120.232 57.1833 117.995 58.0393 115.314 58.0393C112.633 58.0393 110.413 57.1833 108.654 55.4718C106.811 53.6767 105.889 51.3503 105.889 48.4915C105.889 45.7332 106.819 43.4565 108.679 41.6613C110.488 39.9331 112.7 39.0687 115.314 39.0687C118.045 39.0687 120.307 39.9744 122.1 41.7863C123.893 43.597 124.789 45.8325 124.789 48.4915ZM124.153 51.9814H128.4C128.4 53.627 129.204 54.4495 130.814 54.4495C132.304 54.4495 133.05 53.8011 133.05 52.5054C133.05 51.6577 132.405 50.9345 131.115 50.3363C130.277 50.0205 129.037 49.4971 127.395 48.7661C125.569 47.8353 124.656 46.4642 124.656 44.6529C124.656 43.024 125.284 41.6613 126.54 40.5642C127.73 39.5341 129.154 39.019 130.814 39.019C132.573 39.019 133.98 39.4886 135.035 40.4272C136.091 41.3664 136.711 42.7003 136.895 44.4285H132.623C132.623 43.2818 131.986 42.7081 130.713 42.7081C130.21 42.7081 129.787 42.8577 129.443 43.1568C129.1 43.4565 128.928 43.8471 128.928 44.3286C128.928 45.0267 129.507 45.6333 130.663 46.1483C131.551 46.5306 132.43 46.9128 133.301 47.2951C134.357 47.794 135.161 48.2923 135.714 48.7912C136.787 49.771 137.322 51.0177 137.322 52.5299C137.322 54.4082 136.669 55.829 135.362 56.7927C134.189 57.6571 132.623 58.0889 130.663 58.0889C128.668 58.0889 127.068 57.474 125.862 56.2441C124.723 55.0974 124.153 53.6767 124.153 51.9814ZM152.746 57.5655H148.197V50.1616H142.241V57.5655H137.691V39.6172H142.241V46.6472H148.197V39.6172H152.746V57.5655ZM154.07 39.6172H158.569V51.8569C158.569 53.3363 159.202 54.0756 160.467 54.0756H162.44V57.5655H159.6C157.874 57.5655 156.55 57.142 155.629 56.2944C154.59 55.3636 154.07 53.9428 154.07 52.0316V39.6172ZM180.151 57.5655H175.702V55.4467C174.445 57.1749 172.619 58.0393 170.223 58.0393C167.609 58.0393 165.49 57.1169 163.864 55.272C162.256 53.4775 161.451 51.242 161.451 48.5663C161.451 45.9079 162.264 43.664 163.894 41.8359C165.523 40.0079 167.622 39.0938 170.19 39.0938C172.556 39.0938 174.374 39.9163 175.652 41.5614V39.6172H180.151V57.5655ZM175.778 48.6662C175.778 47.1707 175.292 45.8786 174.32 44.7898C173.348 43.7011 172.125 43.1568 170.65 43.1568C169.193 43.1568 167.994 43.7137 167.056 44.8269C166.151 45.8744 165.699 47.1204 165.699 48.5663C165.699 50.0289 166.168 51.2922 167.107 52.3558C168.095 53.4691 169.301 54.026 170.726 54.026C172.116 54.026 173.315 53.4691 174.32 52.3558C175.292 51.2922 175.778 50.0623 175.778 48.6662ZM181.475 57.5655V39.6172H188.839C190.916 39.6172 192.567 39.9995 193.79 40.764C195.248 41.7109 195.977 43.1651 195.977 45.126C195.977 46.6885 195.524 47.9184 194.62 48.8157C193.865 49.5635 192.751 50.1036 191.277 50.4362L196.881 57.5655H191.679L186.024 49.9128V57.5655H181.475ZM186.024 47.5194H188.462C189.283 47.5194 189.945 47.3447 190.447 46.996C191.033 46.5808 191.327 45.9821 191.327 45.2014C191.327 43.8052 190.439 43.1071 188.663 43.1071H186.024V47.5194Z" fill="#FEFEFE"/>
<path d="M95.5147 75.8071V61.0275H97.1293V75.8071H95.5147ZM101.522 75.8071V62.5876H97.7559V61.0275H106.883V62.5876H103.137V75.8071H101.522ZM109.786 75.8071V62.5876H106.019V61.0275H115.146V62.5876H111.4V75.8071H109.786ZM115.752 75.8071V61.0275H117.366V75.8071H115.752ZM121.056 75.8071H119.442V64.558C119.442 63.2719 119.732 62.362 120.311 61.8278C120.89 61.2942 121.835 61.0275 123.147 61.0275H126.892V62.5056H123.54C122.601 62.5056 121.953 62.6629 121.594 62.9776C121.235 63.2922 121.056 63.9012 121.056 64.8045V67.2475H125.651V68.725H121.056V75.8071ZM127.002 68.4379C127.002 66.3305 127.733 64.5102 129.195 62.9776C130.658 61.445 132.445 60.6787 134.556 60.6787C136.694 60.6787 138.519 61.4109 140.03 62.8747C141.541 64.3391 142.296 66.1319 142.296 68.2531C142.296 70.4149 141.578 72.2628 140.144 73.7954C138.667 75.3692 136.853 76.1558 134.7 76.1558C132.562 76.1558 130.744 75.4033 129.247 73.8983C127.75 72.3926 127.002 70.5729 127.002 68.4379ZM128.657 68.4176C128.657 70.1003 129.243 71.5509 130.416 72.7695C131.59 73.9868 133.017 74.5963 134.7 74.5963C136.384 74.5963 137.798 73.973 138.943 72.7282C140.075 71.524 140.641 70.08 140.641 68.3966C140.641 66.6589 140.054 65.1981 138.881 64.0143C137.708 62.8304 136.253 62.2388 134.514 62.2388C132.872 62.2388 131.486 62.8579 130.354 64.0962C129.223 65.3345 128.657 66.7749 128.657 68.4176ZM157.969 68.2531C157.969 70.8397 156.968 72.8993 154.968 74.4318L157.969 74.3086V76.0536L152.401 75.7455C152.429 75.7455 152.298 75.7796 152.008 75.8484C151.428 75.9854 150.856 76.0536 150.29 76.0536C148.055 76.0536 146.227 75.301 144.806 73.7954C143.412 72.331 142.715 70.4837 142.715 68.2531C142.715 66.1594 143.457 64.3732 144.94 62.8956C146.424 61.4175 148.214 60.6787 150.311 60.6787C152.422 60.6787 154.226 61.4175 155.723 62.8956C157.22 64.3732 157.969 66.1594 157.969 68.2531ZM156.313 68.2429C156.313 66.5835 155.723 65.167 154.544 63.9969C153.364 62.8232 151.946 62.2388 150.29 62.2388C148.676 62.2388 147.286 62.8406 146.12 64.0483C144.954 65.2525 144.371 66.6655 144.371 68.2836C144.371 70.0393 144.937 71.5204 146.068 72.7246C147.199 73.9323 148.641 74.5341 150.394 74.5341C152.118 74.5341 153.547 73.912 154.678 72.663C155.768 71.4552 156.313 69.9843 156.313 68.2429ZM159.195 75.8071V61.0275H160.81V75.8071H159.195Z" fill="#FEFEFE"/>
<path d="M91.8518 29.9892C91.8518 27.8943 92.5786 26.0854 94.0321 24.5624C95.4856 23.0388 97.2618 22.2766 99.36 22.2766C101.485 22.2766 103.299 23.0047 104.801 24.4601C106.302 25.9155 107.053 27.6969 107.053 29.8055C107.053 31.9543 106.34 33.7907 104.914 35.3137C103.447 36.878 101.643 37.6605 99.5042 37.6605C97.3782 37.6605 95.5712 36.9121 94.084 35.416C92.5955 33.9199 91.8518 32.111 91.8518 29.9892ZM93.4971 29.9688C93.4971 31.6414 94.0803 33.0836 95.2462 34.2938C96.4114 35.5045 97.8305 36.1099 99.5042 36.1099C101.177 36.1099 102.582 35.4908 103.721 34.2531C104.845 33.0561 105.407 31.6211 105.407 29.9485C105.407 28.2209 104.825 26.7691 103.659 25.5924C102.493 24.4158 101.047 23.8278 99.319 23.8278C97.687 23.8278 96.3088 24.4433 95.184 25.6738C94.0598 26.9049 93.4971 28.3364 93.4971 29.9688ZM107.713 25.4597L105.141 22.1343H106.581L108.597 25.4597H107.713ZM119.747 37.3135H109.626V35.6607L117.546 24.1741H110.469V22.6236H119.356V24.2591L111.426 35.763H119.747V37.3135ZM120.669 37.3135V22.6236H126.058C127.128 22.6236 128.016 23.0082 128.722 23.7763C129.428 24.545 129.782 25.4668 129.782 26.5412C129.782 27.9559 129.151 28.9758 127.889 29.6016C129.713 30.2404 130.625 31.4649 130.625 33.2739C130.625 34.5797 130.217 35.5793 129.401 36.2726C128.585 36.9665 127.512 37.3135 126.182 37.3135H120.669ZM122.274 24.1334V29.0099H125.4C126.21 29.0099 126.874 28.7988 127.395 28.377C127.971 27.9284 128.26 27.3164 128.26 26.5412C128.26 25.8204 128.023 25.2389 127.55 24.7969C127.077 24.3548 126.47 24.1334 125.729 24.1334H122.274ZM122.274 30.4175V35.763H125.894C127.91 35.763 128.918 34.8854 128.918 33.1309C128.918 32.2468 128.554 31.56 127.827 31.0707C127.183 30.6352 126.394 30.4175 125.462 30.4175H122.274ZM144.28 29.0303C143.539 25.6026 141.544 23.8888 138.294 23.8888C136.717 23.8888 135.425 24.3548 134.417 25.2862C133.409 26.2182 132.782 27.466 132.535 29.0303H144.28ZM143.663 32.7636H145.597C144.253 36.0286 141.88 37.6605 138.479 37.6605C136.134 37.6605 134.266 36.9498 132.874 35.5285C131.482 34.1072 130.786 32.2264 130.786 29.8869C130.786 27.6293 131.51 25.7964 132.957 24.3883C134.403 22.9807 136.272 22.2766 138.561 22.2766C140.907 22.2766 142.765 23.0519 144.137 24.603C145.453 26.0854 146.111 28.0032 146.111 30.3565H132.535C132.548 32.1385 133.08 33.5323 134.129 34.5385C135.178 35.5452 136.608 36.0489 138.418 36.0489C141.243 36.0489 142.991 34.9536 143.663 32.7636ZM157.905 37.3135H155.817L149.296 29.5609L155.405 22.6236H157.456L151.082 29.5806L157.905 37.3135ZM148.967 22.6236V37.3135H147.322V22.6236H148.967ZM158.344 37.3135V22.6236H159.948V37.3135H158.344ZM161.179 32.8659H162.969C162.969 33.7363 163.222 34.4774 163.73 35.09C164.264 35.7564 164.964 36.0896 165.828 36.0896C166.692 36.0896 167.425 35.8856 168.029 35.477C168.701 35.0146 169.037 34.3686 169.037 33.5395C169.037 32.4508 168.413 31.5942 167.165 30.9684C166.013 30.4516 164.854 29.9413 163.688 29.4383C162.441 28.7037 161.817 27.6634 161.817 26.3163C161.817 25.1743 162.232 24.2052 163.061 23.4096C163.891 22.6134 164.889 22.2156 166.054 22.2156C167.316 22.2156 168.306 22.5524 169.027 23.226C169.747 23.899 170.134 24.8615 170.189 26.1129H168.337C168.296 25.419 168.063 24.8752 167.638 24.4804C167.213 24.0862 166.651 23.8888 165.951 23.8888C165.252 23.8888 164.676 24.1095 164.223 24.5516C163.771 24.9937 163.545 25.5613 163.545 26.2552C163.545 26.5274 163.586 26.7858 163.668 27.0311C163.846 27.5749 164.463 28.0917 165.519 28.5816C166.493 29.0165 167.467 29.452 168.44 29.8869C169.551 30.4719 170.25 31.1521 170.539 31.9273C170.689 32.3353 170.765 32.8181 170.765 33.3762C170.765 34.709 170.264 35.7696 169.263 36.5586C168.344 37.2932 167.193 37.6605 165.807 37.6605C164.354 37.6605 163.219 37.225 162.403 36.3546C161.587 35.4842 161.179 34.3213 161.179 32.8659ZM163.03 32.8659H162.969V32.7846L163.03 32.8659ZM174.237 37.3135V24.1741H170.494V22.6236H179.565V24.1741H175.842V37.3135H174.237ZM178.349 29.9892C178.349 27.8943 179.075 26.0854 180.529 24.5624C181.983 23.0388 183.758 22.2766 185.857 22.2766C187.983 22.2766 189.796 23.0047 191.298 24.4601C192.799 25.9155 193.55 27.6969 193.55 29.8055C193.55 31.9543 192.837 33.7907 191.411 35.3137C189.944 36.878 188.14 37.6605 186.001 37.6605C183.875 37.6605 182.068 36.9121 180.58 35.416C179.093 33.9199 178.349 32.111 178.349 29.9892ZM179.994 29.9688C179.994 31.6414 180.577 33.0836 181.743 34.2938C182.909 35.5045 184.328 36.1099 186.001 36.1099C187.674 36.1099 189.08 35.4908 190.218 34.2531C191.342 33.0561 191.905 31.6211 191.905 29.9485C191.905 28.2209 191.322 26.7691 190.156 25.5924C188.99 24.4158 187.543 23.8278 185.816 23.8278C184.184 23.8278 182.805 24.4433 181.681 25.6738C180.557 26.9049 179.994 28.3364 179.994 29.9688ZM194.678 22.6236H196.283V25.541C196.859 24.5893 197.613 23.814 198.545 23.2152C199.533 22.5895 200.561 22.2766 201.631 22.2766C203.345 22.2766 204.669 22.7666 205.601 23.7458C206.534 24.7251 207 26.0716 207 27.7854V37.3135H205.395V27.7854C205.395 26.5478 205.045 25.5787 204.346 24.8782C203.647 24.1777 202.673 23.8278 201.425 23.8278C200.355 23.8278 199.396 24.1675 198.545 24.8477C197.764 25.4872 197.167 26.3234 196.756 27.3571C196.441 28.1599 196.283 29.0979 196.283 30.1728V37.3135H194.678V22.6236Z" fill="#FEFEFE"/>
<defs>
<radialGradient id="paint0_radial_154:2004" cx="0" cy="0" r="1" gradientUnits="userSpaceOnUse" gradientTransform="translate(55.6158 34.1416) rotate(-115.393) scale(572.704 536.164)">
<stop stop-color="#F2F2F2"/>
<stop offset="0.568627" stop-color="#DFDFDF"/>
<stop offset="1" stop-color="#CCCCCC"/>
</radialGradient>
</defs>
</svg>
