<svg width="32" height="32" fill="none" xmlns="http://www.w3.org/2000/svg"><path d="M16 11.834A4.174 4.174 0 0 0 11.834 16 4.174 4.174 0 0 0 16 20.166 4.174 4.174 0 0 0 20.166 16 4.174 4.174 0 0 0 16 11.834ZM28.494 16c0-1.725.015-3.434-.081-5.156-.097-2-.554-3.775-2.016-5.238-1.466-1.466-3.238-1.919-5.238-2.016-1.725-.096-3.434-.08-5.156-.08-1.725 0-3.434-.016-5.156.08-2 .097-3.775.554-5.238 2.016-1.465 1.466-1.918 3.238-2.015 5.238-.097 1.725-.081 3.434-.081 5.156 0 1.722-.016 3.434.08 5.156.098 2 .554 3.775 2.016 5.238 1.466 1.465 3.238 1.918 5.238 2.015 1.725.097 3.434.082 5.156.082 1.725 0 3.434.015 5.156-.082 2-.097 3.775-.553 5.238-2.015 1.466-1.466 1.919-3.238 2.016-5.238.1-1.722.08-3.431.08-5.156ZM16 22.41A6.4 6.4 0 0 1 9.59 16 6.4 6.4 0 0 1 16 9.59 6.4 6.4 0 0 1 22.41 16 6.4 6.4 0 0 1 16 22.41Zm6.672-11.585a1.495 1.495 0 0 1-1.497-1.497c0-.828.669-1.497 1.497-1.497a1.495 1.495 0 0 1 1.383 2.07 1.496 1.496 0 0 1-1.383.924Z" fill="#F6F6F6"/></svg>