<svg width="40" height="37" fill="none" xmlns="http://www.w3.org/2000/svg"><path d="M32 17c0 7-5 13-12 13S8 24 8 17c0-6 5-12 12-12s12 6 12 12Z" fill="#BCCCD2"/><path fill-rule="evenodd" clip-rule="evenodd" d="M33 17c0 8-6 14-13 14S7 25 7 17c0-7 6-13 13-13s13 6 13 13ZM20 30c7 0 12-6 12-13 0-6-5-12-12-12S8 11 8 17c0 7 5 13 12 13Z" fill="#81A5B0"/><path fill-rule="evenodd" clip-rule="evenodd" d="m9 18-1-1c0-6 6-12 12-12l1 1h-1C14 6 9 11 9 17v1Z" fill="#D0DEE3"/><path fill-rule="evenodd" clip-rule="evenodd" d="M31 17h1c0 7-5 12-12 12v-1c6 0 11-5 11-11Z" fill="#A2B9C1"/><path d="M29 17c0 5-4 9-9 9s-9-4-9-9 4-9 9-9 9 4 9 9Z" fill="#C7D4D8"/><path fill-rule="evenodd" clip-rule="evenodd" d="M30 17c0 6-4 10-10 10-5 0-10-4-10-10 0-5 5-10 10-10 6 0 10 5 10 10Zm-10 9c5 0 9-4 9-9s-4-9-9-9-9 4-9 9 4 9 9 9Z" fill="#81A5B0"/><path fill-rule="evenodd" clip-rule="evenodd" d="M20 25c4 0 8-3 8-8h1c0 5-4 9-9 9v-1Z" fill="#B5C3C8"/><path fill-rule="evenodd" clip-rule="evenodd" d="M20 10c-4 0-7 3-7 7l-1 1v-1c0-4 3-8 8-8h1l-1 1Z" fill="#D9EAEF"/><path d="m6 29-1-2h6v6H6l-1-1 1-2v-1ZM34 29l1-2h-6v5l1 1h5v-1l-1-2v-1Z" fill="#C52229"/><path fill-rule="evenodd" clip-rule="evenodd" d="m6 30-1-3 1-1h5l1 1v5l-1 1H6c-1 0-2 0-1-1l1-2Zm0 0Zm29 0 1-3-1-1h-5l-2 1v5l2 1h5l1-1-1-2Zm0-3-1 2v1l1 2v1h-5l-1-1v-5h6ZM5 27l1 2v1l-1 2 1 1h5v-6H5Z" fill="#9B0F15"/><path fill-rule="evenodd" clip-rule="evenodd" d="M6 27h2-1l1 2-1 1v-1l-1-2Z" fill="#DF3840"/><path d="M31 31v-6H10v6h21Z" fill="#F1333B"/><path fill-rule="evenodd" clip-rule="evenodd" d="M31 25v6l-1 1H10l-1-1v-6l1-1h20l1 1Zm0 0v6H10v-6h21Z" fill="#9B0F15"/><path d="M30 28h-1l1-1v1ZM28 28v-1l1 1h-1ZM29 29ZM28 27v-1h1l-1 1ZM27 29v-1 1ZM27 28v-1 1ZM25 30h1-1ZM30 30v-1 1ZM28 30h-1l1-1v1ZM29 30h1-1ZM26 30v-1 1ZM27 31l-1-1h1v1Z" fill="#DB1B24"/><path fill-rule="evenodd" clip-rule="evenodd" d="M10 26v-1h14l1 1H11v3h-1v-3Z" fill="#FE666D"/><path d="M23 21h-5v-1l2-3 1-1v-1h-2v1h-1v-1l1-1 1-1 2 1v3l-1 1-1 2h3v1Z" fill="#D9EAEF"/><path fill-rule="evenodd" clip-rule="evenodd" d="M23 21h-6v-2l2-2 1-1a1 1 0 0 0 0-1v1l-1 1h-1l-1-1v-2l1-1h4l1 2v2a7 7 0 0 1-1 1l-1 1h2v2Zm-3-1 1-2 1-1v-3l-2-1-1 1a2 2 0 0 0-1 1v1h1v-1h2v1l-1 1-2 3v1h5v-1h-3Z" fill="#81A5B0"/></svg>