<svg width="40" height="37" fill="none" xmlns="http://www.w3.org/2000/svg"><path d="M32 17A12 12 0 1 1 20 5c7 0 12 5 12 12Z" fill="#DCA16A"/><path fill-rule="evenodd" clip-rule="evenodd" d="M33 17A13 13 0 1 1 20 4c7 0 13 6 13 13ZM20 29c7 0 12-5 12-12a12 12 0 1 0-12 12Z" fill="#C38144"/><path fill-rule="evenodd" clip-rule="evenodd" d="M9 17H8c0-6 6-12 12-12v1C14 6 9 11 9 17Z" fill="#F0B57F"/><path fill-rule="evenodd" clip-rule="evenodd" d="M31 17h1c0 6-6 12-12 12v-1c6 0 11-5 11-11Z" fill="#CF945D"/><path d="M29 17a9 9 0 1 1-9-9c5 0 9 4 9 9Z" fill="#F7BA82"/><path fill-rule="evenodd" clip-rule="evenodd" d="M30 17A10 10 0 1 1 20 7c5 0 10 5 10 10Zm-10 9c5 0 9-4 9-9a9 9 0 1 0-9 9Z" fill="#C38144"/><path fill-rule="evenodd" clip-rule="evenodd" d="M20 25c4 0 8-4 8-8 0 5-3 8-8 8Z" fill="#E6A66C"/><path fill-rule="evenodd" clip-rule="evenodd" d="M20 9c-4 0-8 4-8 8 0-5 3-8 8-8Z" fill="#FFD5AE"/><path d="m6 29-1-2 1-1h5v6H5l1-3ZM34 29l1-2-1-1h-5v6h6l-1-3Z" fill="#C52229"/><path fill-rule="evenodd" clip-rule="evenodd" d="m6 29-1-2c-1-1 0-2 1-2h5l1 1v6l-1 1H6c-1 0-2-1-1-2l1-2Zm0 0Zm28 0 1-2c1-1 0-2-1-2h-5l-1 1v6l1 1h5c1 0 2-1 1-2l-1-2Zm1-2-1 2 1 3h-6v-6h5l1 1ZM5 27l1 2-1 3h6v-6H6l-1 1Z" fill="#9B0F15"/><path fill-rule="evenodd" clip-rule="evenodd" d="M6 26h2v1H7v2c1 0 1 0 0 0l-1-2v-1Z" fill="#DF3840"/><path d="M31 30v-5H10v6h20l1-1Z" fill="#F1333B"/><path fill-rule="evenodd" clip-rule="evenodd" d="M31 25v5l-1 1H10l-1-1v-5l1-1h20l1 1Zm0 0v5l-1 1H10v-6h21Z" fill="#9B0F15"/><path d="M29 28v-1h1l-1 1ZM28 28v-1 1ZM29 29l-1-1h1v1ZM28 26ZM27 28ZM27 27ZM25 30v-1 1ZM30 29ZM28 30l-1-1h1v1ZM29 30v-1l1 1h-1ZM26 29h-1l1-1v1ZM27 30h-1 1Z" fill="#DB1B24"/><path fill-rule="evenodd" clip-rule="evenodd" d="M10 25h15-15v3-3Z" fill="#FE666D"/><path d="M19 16h2v-1l-1-1-1 1h-1v-1l1-1h1l2 1v2l-1 1h1v3h-4l-1-2h2v1h2v-1l-1-1h-1v-1Z" fill="#FFD5AE"/><path fill-rule="evenodd" clip-rule="evenodd" d="m18 16-1-1v-1l1-1 2-1 2 1a3 3 0 0 1 0 4h1v1l-1 2-2 1-2-1-1-2h1v-2Zm4 4v-2a2 2 0 0 0 0-1h-1a2 2 0 0 0 1-1v-2l-2-1h-1a2 2 0 0 0-1 1v1h1l1-1 1 1v1h-2v1h1l1 1v1h-2v-1h-2l1 1v1h4Zm-2-5Z" fill="#C28044"/></svg>