<svg width="22" height="22" fill="none" xmlns="http://www.w3.org/2000/svg"><path d="M18 3h2l1 1v16l-1 1H2l-1-1V4l1-1h3M13 3h2M8 3h2M3 8h16" stroke="#F6F6F6" stroke-miterlimit="10" stroke-linejoin="round"/><path d="M5 1v4M16 1v4M10 1v4" stroke="#F6F6F6" stroke-miterlimit="10" stroke-linecap="round"/><path d="M8 14v1-1ZM5 14v1-1ZM11 14v1-1ZM14 14v1-1ZM17 14v1-1ZM8 11v1-1ZM11 11v1-1ZM14 11v1-1ZM17 11v1-1ZM8 17v1-1ZM5 17v1-1ZM11 17v1-1ZM14 17v1-1Z" fill="#F6F6F6" stroke="#F6F6F6" stroke-miterlimit="10"/></svg>